# This file uses centimeters as units for non-parametric coordinates.

mtllib TexturedBox.mtl
g default
v -4.000000 0.000000 2.000000
v 4.000000 0.000000 2.000000
v -4.000000 3.130449 2.000000
v 4.000000 3.130449 2.000000
v -4.000000 3.130449 -2.000000
v 4.000000 3.130449 -2.000000
v -4.000000 0.000000 -2.000000
v 4.000000 0.000000 -2.000000
v -4.000000 4.527971 0.422410
v 4.000000 4.527971 0.422410
v 4.000000 4.527971 -0.422410
v -4.000000 4.527971 -0.422410
v -4.000000 3.479829 1.851125
v -4.000000 3.829210 1.625977
v -4.000000 4.178591 1.212622
v 4.000000 3.479829 1.851125
v 4.000000 3.829210 1.625977
v 4.000000 4.178591 1.212622
v 4.000000 3.479829 -1.851125
v 4.000000 3.829210 -1.625977
v 4.000000 4.178591 -1.212622
v -4.000000 3.479829 -1.851125
v -4.000000 3.829210 -1.625977
v -4.000000 4.178591 -1.212622
v -4.000000 4.385972 0.905657
v 4.000000 4.385972 0.905657
v 4.000000 4.385972 -0.905657
v -4.000000 4.385972 -0.905657
vt 0.015069 0.232940
vt 0.531227 0.232940
vt 0.531227 0.439764
vt 0.015069 0.439764
vt 0.008084 0.717590
vt 0.528669 0.717590
vt 0.528669 0.460385
vt 0.008084 0.460385
vt 0.323526 0.738587
vt 0.011769 0.738587
vt 0.011769 0.994429
vt 0.323526 0.994429
vt 0.326573 0.739651
vt 0.638330 0.739651
vt 0.638330 0.995492
vt 0.326573 0.995492
vt 0.013564 0.213291
vt 0.529723 0.213291
vt 0.529723 0.006467
vt 0.013564 0.006467
vt 0.798682 0.509580
vt 0.798637 0.008892
vt 0.851984 0.008839
vt 0.852045 0.509582
vt 0.659936 0.509761
vt 0.659051 0.009081
vt 0.683030 0.009043
vt 0.709275 0.009003
vt 0.743448 0.008957
vt 0.766837 0.008927
vt 0.767725 0.509573
vt 0.744334 0.509613
vt 0.710158 0.509674
vt 0.683913 0.509720
vt 0.991610 0.008759
vt 0.991685 0.509571
vt 0.967699 0.509573
vt 0.941446 0.509577
vt 0.907260 0.509580
vt 0.883860 0.509581
vt 0.883793 0.008813
vt 0.907190 0.008797
vt 0.941372 0.008777
vt 0.967624 0.008766
vt 0.998548 0.695918
vt 0.654432 0.695918
vt 0.667239 0.725975
vt 0.686608 0.756032
vt 0.722169 0.786089
vt 0.748577 0.803929
vt 0.790150 0.816145
vt 0.862829 0.816145
vt 0.904403 0.803929
vt 0.930810 0.786089
vt 0.966371 0.756032
vt 0.985740 0.725975
vt 0.653842 0.877953
vt 0.997958 0.877953
vt 0.985151 0.908010
vt 0.965782 0.938067
vt 0.930221 0.968123
vt 0.903813 0.985964
vt 0.862240 0.998181
vt 0.789560 0.998181
vt 0.747987 0.985964
vt 0.721579 0.968123
vt 0.686019 0.938067
vt 0.666650 0.908010
vn 0.000000 0.000000 1.000000
vn 0.000000 0.000000 1.000000
vn 0.000000 0.000000 1.000000
vn 0.000000 0.000000 1.000000
vn 0.000000 0.935023 0.354588
vn 0.000000 0.935023 0.354588
vn -0.000000 0.935023 -0.354588
vn -0.000000 0.935023 -0.354588
vn 0.000000 0.000000 -1.000000
vn 0.000000 0.000000 -1.000000
vn 0.000000 0.000000 -1.000000
vn 0.000000 0.000000 -1.000000
vn 0.000000 -1.000000 0.000000
vn 0.000000 -1.000000 0.000000
vn 0.000000 -1.000000 0.000000
vn 0.000000 -1.000000 0.000000
vn 1.000000 0.000000 0.000000
vn 1.000000 0.000000 0.000000
vn 1.000000 -0.000000 0.000000
vn 1.000000 -0.000000 0.000000
vn -1.000000 0.000000 0.000000
vn -1.000000 0.000000 0.000000
vn -1.000000 -0.000000 0.000000
vn -1.000000 -0.000000 0.000000
vn 0.000000 0.748534 0.663096
vn 0.000000 0.748534 0.663096
vn 0.000000 0.748534 0.663096
vn 0.000000 0.748534 0.663096
vn 0.000000 0.748534 0.663096
vn 0.000000 0.748534 0.663096
vn 0.000000 0.748534 0.663096
vn 0.000000 0.748534 0.663096
vn 0.000000 0.748534 0.663096
vn 0.000000 0.748534 0.663096
vn 1.000000 -0.000000 0.000000
vn 1.000000 -0.000000 0.000000
vn 1.000000 -0.000000 0.000000
vn 1.000000 -0.000000 0.000000
vn 1.000000 -0.000000 0.000000
vn 1.000000 -0.000000 0.000000
vn 1.000000 -0.000000 0.000000
vn 1.000000 -0.000000 0.000000
vn 1.000000 -0.000000 0.000000
vn 1.000000 -0.000000 0.000000
vn -0.000000 0.748534 -0.663096
vn -0.000000 0.748534 -0.663096
vn -0.000000 0.748534 -0.663096
vn -0.000000 0.748534 -0.663096
vn -0.000000 0.748534 -0.663096
vn -0.000000 0.748534 -0.663096
vn -0.000000 0.748534 -0.663096
vn -0.000000 0.748534 -0.663096
vn -0.000000 0.748534 -0.663096
vn -0.000000 0.748534 -0.663096
vn -1.000000 -0.000000 0.000000
vn -1.000000 -0.000000 0.000000
vn -1.000000 -0.000000 0.000000
vn -1.000000 -0.000000 0.000000
vn -1.000000 -0.000000 0.000000
vn -1.000000 -0.000000 0.000000
vn -1.000000 -0.000000 0.000000
vn -1.000000 -0.000000 0.000000
vn -1.000000 -0.000000 0.000000
vn -1.000000 -0.000000 0.000000
s off
g pCube2
usemtl lambert5SG
f 1/1/1 2/2/2 4/3/3 3/4/4
s 1
f 9/21/5 10/22/6 11/23/7 12/24/8
s off
f 5/17/9 6/18/10 8/19/11 7/20/12
f 7/5/13 8/6/14 2/7/15 1/8/16
s 2
f 2/13/17 8/14/18 6/15/19 4/16/20
s 3
f 7/9/21 1/10/22 3/11/23 5/12/24
s 1
f 3/25/25 4/26/26 16/27/27 17/28/28 18/29/29 26/30/30 10/22/6 9/21/5 25/31/31 15/32/32 14/33/33 13/34/34
s 2
f 4/57/20 6/58/19 19/59/35 20/60/36 21/61/37 27/62/38 11/63/39 10/64/40 26/65/41 18/66/42 17/67/43 16/68/44
s 1
f 6/35/45 5/36/46 22/37/47 23/38/48 24/39/49 28/40/50 12/24/8 11/23/7 27/41/51 21/42/52 20/43/53 19/44/54
s 3
f 5/45/24 3/46/23 13/47/55 14/48/56 15/49/57 25/50/58 9/51/59 12/52/60 28/53/61 24/54/62 23/55/63 22/56/64
